<svg width="120" height="96" viewBox="0 0 120 96" fill="none" xmlns="http://www.w3.org/2000/svg">
<path fill-rule="evenodd" clip-rule="evenodd" d="M1.84521 92.2505L5.53003 93.589L1.84521 94.9268L1.84522 95.3991L6.15094 93.7823L6.15094 93.4098L1.84521 91.793L1.84521 92.2505Z" fill="#727272"/>
<path fill-rule="evenodd" clip-rule="evenodd" d="M1.84521 89.8034L6.15094 89.8034L6.15094 89.3887L1.84521 89.3887L1.84521 89.8034Z" fill="#727272"/>
<path fill-rule="evenodd" clip-rule="evenodd" d="M4.00924 87.5856L3.99457 87.5856C2.85258 87.5856 1.84521 86.7858 1.84521 85.6016C1.84521 84.9302 2.04682 84.5148 2.3977 84.1227L2.75561 84.4097C2.47235 84.7193 2.27776 85.0586 2.27776 85.6165C2.27776 86.4917 3.05419 87.1251 3.97925 87.1251L3.99457 87.1251C4.98662 87.1251 5.7254 86.5143 5.7254 85.5565C5.7254 85.1031 5.53911 84.6812 5.30753 84.4097L4.27783 84.4097L4.27783 85.6165L3.8523 85.6165L3.8523 83.9795L5.50913 83.9795C5.86002 84.3491 6.15094 84.9076 6.15094 85.5713C6.15094 86.8161 5.19588 87.5856 4.00924 87.5856Z" fill="#727272"/>
<path fill-rule="evenodd" clip-rule="evenodd" d="M1.84521 81.9904L6.15094 81.9904L6.15094 81.5757L1.84521 81.5757L1.84521 81.9904Z" fill="#727272"/>
<path fill-rule="evenodd" clip-rule="evenodd" d="M1.84521 79.7722L1.84521 79.3658L5.70361 79.3658L5.70361 77.3682L6.15094 77.3682L6.15094 79.7722L1.84521 79.7722Z" fill="#727272"/>
<path fill-rule="evenodd" clip-rule="evenodd" d="M4.58796 72.9584L2.41184 73.762L4.58796 74.5721L4.58796 72.9584ZM1.84521 73.9514L1.84521 73.5727L6.15094 71.959L6.15094 72.3845L5.02488 72.8025L5.02488 74.7343L6.15094 75.1535L6.15094 75.5651L1.84521 73.9514Z" fill="#727272"/>
<path fill-rule="evenodd" clip-rule="evenodd" d="M5.70361 68.3617C5.70361 67.5012 4.96267 66.9472 4.01325 66.9472L3.99808 66.9472C3.04865 66.9472 2.29255 67.5012 2.29255 68.3617L2.29255 69.1703L5.70361 69.1703L5.70361 68.3617ZM1.84521 69.5549L1.84521 68.3617C1.84521 67.2927 2.7788 66.5498 3.9829 66.5498L3.99808 66.5498C5.20943 66.5498 6.15094 67.2927 6.15094 68.3617L6.15094 69.5549L1.84521 69.5549Z" fill="#727272"/>
<path fill-rule="evenodd" clip-rule="evenodd" d="M4.00924 61.5521L3.99457 61.5521C3.04653 61.5521 2.27776 62.1387 2.27776 62.9471C2.27776 63.7556 3.03887 64.3353 3.97925 64.3353L3.99457 64.3353C4.94197 64.3353 5.71073 63.7424 5.71073 62.9333C5.71073 62.1248 4.94962 61.5521 4.00924 61.5521ZM4.00924 64.7467L3.99457 64.7467C2.84493 64.7467 1.84521 64.012 1.84521 62.9333C1.84521 61.8621 2.83791 61.1406 3.97925 61.1406L3.99457 61.1406C5.14357 61.1406 6.15094 61.869 6.15094 62.9471C6.15094 64.0253 5.15122 64.7467 4.00924 64.7467Z" fill="#727272"/>
<path fill-rule="evenodd" clip-rule="evenodd" d="M3.30793 58.7367L3.00703 58.4884C3.20568 58.2687 3.32137 58.0412 3.32137 57.7571C3.32137 57.5016 3.19867 57.3384 3.02105 57.3384L3.00703 57.3384C2.84343 57.3384 2.74761 57.4373 2.64477 57.864C2.52207 58.3604 2.37191 58.6444 1.92727 58.6444C1.51769 58.6444 1.23022 58.3112 1.23022 57.8494C1.23022 57.5089 1.34007 57.2389 1.53113 57.0046L1.84547 57.2249C1.6883 57.4306 1.59949 57.6437 1.59949 57.8567C1.59949 58.0909 1.7292 58.2329 1.88637 58.2329L1.89338 58.2329C2.07802 58.2329 2.15982 58.1261 2.26908 57.6795C2.39236 57.1891 2.56998 56.9336 2.96613 56.9336L2.98015 56.9336C3.4242 56.9336 3.69064 57.2747 3.69064 57.7638C3.69064 58.1188 3.56794 58.4526 3.30793 58.7367Z" fill="#727272"/>
<path fill-rule="evenodd" clip-rule="evenodd" d="M2.62339 56.3328L1.23022 56.3328L1.23022 55.9608L2.60976 55.9608C3.06013 55.9608 3.30249 55.7622 3.30249 55.4286C3.30249 55.101 3.07376 54.9024 2.62339 54.9024L1.23022 54.9024L1.23022 54.5298L2.60976 54.5298C3.33034 54.5298 3.69064 54.8826 3.69064 55.4346C3.69064 55.9866 3.33035 56.3328 2.62339 56.3328Z" fill="#727272"/>
<path fill-rule="evenodd" clip-rule="evenodd" d="M2.50971 53.0413C2.50971 52.736 2.32701 52.537 2.06679 52.537C1.77171 52.537 1.62387 52.736 1.62387 53.0413L1.62387 53.5165L2.50971 53.5165L2.50971 53.0413ZM1.23022 53.9286L1.23022 53.0055C1.23022 52.466 1.56076 52.1255 2.05297 52.1255L2.05958 52.1255C2.61548 52.1255 2.89614 52.5442 2.89614 53.0552L2.89614 53.5165L3.69064 53.5165L3.69064 53.9286L1.23022 53.9286Z" fill="#727272"/>
<path fill-rule="evenodd" clip-rule="evenodd" d="M1.23022 51.5247L1.23022 49.7436L1.61665 49.7436L1.61665 51.0992L2.2567 51.0992L2.2567 49.8972L2.64313 49.8972L2.64313 51.0992L3.30361 51.0992L3.30361 49.7217L3.69064 49.7217L3.69064 51.5247L1.23022 51.5247Z" fill="#727272"/>
<path fill-rule="evenodd" clip-rule="evenodd" d="M2.4463 48.2026C2.4463 47.9379 2.29181 47.7633 2.03874 47.7633L2.03153 47.7633C1.77124 47.7633 1.62396 47.9313 1.62396 48.2026L1.62396 48.7458L2.4463 48.7458L2.4463 48.2026ZM1.23022 49.1204L1.23022 48.1772C1.23022 47.9053 1.32099 47.6987 1.47609 47.5633C1.60954 47.4533 1.79228 47.3881 2.01049 47.3881C2.41805 47.3881 2.6573 47.5953 2.75588 47.8926L3.69064 47.3174L3.69064 47.7567L2.83283 48.2805L2.83283 48.2866L2.83283 48.7458L3.69064 48.7458L3.69064 49.1204L1.23022 49.1204Z" fill="#727272"/>
<path fill-rule="evenodd" clip-rule="evenodd" d="M1.23022 47.1244L3.69064 47.1244L3.69064 46.7163L1.23022 46.7163L1.23022 47.1244Z" fill="#727272"/>
<path fill-rule="evenodd" clip-rule="evenodd" d="M1.23022 46.1156L1.23022 45.7754L2.931 44.672L1.23022 44.672L1.23022 44.3125L3.69064 44.3125L3.69064 44.6154L1.93998 45.7566L3.69064 45.7566L3.69064 46.1156L1.23022 46.1156Z" fill="#727272"/>
<path fill-rule="evenodd" clip-rule="evenodd" d="M1.63108 43.0067L1.63108 43.7113L1.23022 43.7113L1.23022 41.9082L1.63108 41.9082L1.63108 42.6133L3.69064 42.6133L3.69064 43.0067L1.63108 43.0067Z" fill="#727272"/>
<path fill-rule="evenodd" clip-rule="evenodd" d="M1.23022 41.307L1.23022 39.5252L1.61665 39.5252L1.61665 40.8814L2.2567 40.8814L2.2567 39.6794L2.64313 39.6794L2.64313 40.8814L3.30361 40.8814L3.30361 39.5039L3.69064 39.5039L3.69064 41.307L1.23022 41.307Z" fill="#727272"/>
<path fill-rule="evenodd" clip-rule="evenodd" d="M1.23022 38.9032L1.23022 38.5625L2.931 37.4591L1.23022 37.4591L1.23022 37.1001L3.69064 37.1001L3.69064 37.403L1.93998 38.5436L3.69064 38.5436L3.69064 38.9032L1.23022 38.9032Z" fill="#727272"/>
<path fill-rule="evenodd" clip-rule="evenodd" d="M3.29699 35.752C3.29699 35.3394 2.95263 35.0664 2.46764 35.0664L2.46043 35.0664C1.98265 35.0664 1.62387 35.3394 1.62387 35.752L1.62387 36.147L3.29699 36.147L3.29699 35.752ZM1.23022 36.4989L1.23022 35.752C1.23022 35.1271 1.75728 34.6958 2.45322 34.6958L2.46043 34.6958C3.14915 34.6958 3.69064 35.1271 3.69064 35.752L3.69064 36.4989L1.23022 36.4989Z" fill="#727272"/>
<path fill-rule="evenodd" clip-rule="evenodd" d="M1.23022 34.0951L1.23022 32.3139L1.61665 32.3139L1.61665 33.6695L2.2567 33.6695L2.2567 32.4675L2.64313 32.4675L2.64313 33.6695L3.30361 33.6695L3.30361 32.292L3.69064 32.292L3.69064 34.0951L1.23022 34.0951Z" fill="#727272"/>
<path fill-rule="evenodd" clip-rule="evenodd" d="M1.23022 31.6908L1.23022 31.3506L2.931 30.2472L1.23022 30.2472L1.23022 29.8877L3.69064 29.8877L3.69064 30.1906L1.93998 31.3318L3.69064 31.3318L3.69064 31.6908L1.23022 31.6908Z" fill="#727272"/>
<path fill-rule="evenodd" clip-rule="evenodd" d="M2.4674 29.2869L2.46043 29.2869C1.78112 29.2869 1.23022 28.7259 1.23022 27.9321C1.23022 27.452 1.38654 27.1561 1.60388 26.9068L1.91012 27.2034C1.73346 27.4123 1.61782 27.6362 1.61782 27.9403C1.61782 28.4376 1.9845 28.8061 2.45404 28.8061L2.46043 28.8061C2.92241 28.8061 3.30304 28.4376 3.30304 27.9403C3.30304 27.6123 3.18798 27.4123 2.99737 27.1801L3.26933 26.8828C3.52735 27.1636 3.69064 27.4602 3.69064 27.9486C3.69064 28.7177 3.15369 29.2869 2.4674 29.2869Z" fill="#727272"/>
<path fill-rule="evenodd" clip-rule="evenodd" d="M1.23022 26.6898L3.69064 26.6898L3.69064 26.2817L1.23022 26.2817L1.23022 26.6898Z" fill="#727272"/>
<path fill-rule="evenodd" clip-rule="evenodd" d="M2.72173 24.0851L1.74626 24.4853L2.72173 24.8789L2.72173 24.0851ZM1.23022 24.6686L1.23022 24.2888L3.69064 23.2764L3.69064 23.7054L3.09833 23.9373L3.09833 25.0267L3.69064 25.2658L3.69064 25.6804L1.23022 24.6686Z" fill="#727272"/>
<path fill-rule="evenodd" clip-rule="evenodd" d="M1.23022 22.0745L1.23022 20.2715L1.62387 20.2715L1.62387 21.6456L2.29156 21.6456L2.29156 20.4269L2.6852 20.4269L2.6852 21.6456L3.69064 21.6456L3.69064 22.0745L1.23022 22.0745Z" fill="#727272"/>
<path fill-rule="evenodd" clip-rule="evenodd" d="M1.23022 19.4774L3.69064 19.4774L3.69064 19.0693L1.23022 19.0693L1.23022 19.4774Z" fill="#727272"/>
<path fill-rule="evenodd" clip-rule="evenodd" d="M1.23022 18.4686L1.23022 18.1285L2.931 17.0251L1.23022 17.0251L1.23022 16.6655L3.69064 16.6655L3.69064 16.9685L1.93998 18.1096L3.69064 18.1096L3.69064 18.4686L1.23022 18.4686Z" fill="#727272"/>
<path fill-rule="evenodd" clip-rule="evenodd" d="M2.72173 14.4691L1.74626 14.8694L2.72173 15.2631L2.72173 14.4691ZM1.23022 15.0527L1.23022 14.6729L3.69064 13.6602L3.69064 14.0893L3.09833 14.3213L3.09833 15.4103L3.69064 15.6501L3.69064 16.0642L1.23022 15.0527Z" fill="#727272"/>
<path fill-rule="evenodd" clip-rule="evenodd" d="M1.23022 13.0594L1.23022 12.7188L2.931 11.6158L1.23022 11.6158L1.23022 11.2563L3.69064 11.2563L3.69064 11.5592L1.93998 12.7L3.69064 12.7L3.69064 13.0594L1.23022 13.0594Z" fill="#727272"/>
<path fill-rule="evenodd" clip-rule="evenodd" d="M2.4674 11.2561L2.46043 11.2561C1.78112 11.2561 1.23022 10.695 1.23022 9.90165C1.23022 9.4207 1.38654 9.12473 1.60388 8.87534L1.91012 9.17269C1.73346 9.38096 1.61782 9.605 1.61782 9.90987C1.61782 10.4066 1.9845 10.7752 2.45404 10.7752L2.46043 10.7752C2.92241 10.7752 3.30304 10.4066 3.30304 9.90987C3.30304 9.58102 3.18798 9.38096 2.99737 9.14871L3.26933 8.85205C3.52735 9.13226 3.69064 9.42892 3.69064 9.9181C3.69064 10.6868 3.15369 11.2561 2.4674 11.2561Z" fill="#727272"/>
<path fill-rule="evenodd" clip-rule="evenodd" d="M1.23022 8.65907L3.69064 8.65907L3.69064 8.25098L1.23022 8.25098L1.23022 8.65907Z" fill="#727272"/>
<path fill-rule="evenodd" clip-rule="evenodd" d="M1.23022 7.65023L1.23022 5.8691L1.61665 5.8691L1.61665 7.22532L2.2567 7.22532L2.2567 6.02265L2.64313 6.02265L2.64313 7.22532L3.30361 7.22532L3.30361 5.84717L3.69064 5.84717L3.69064 7.65023L1.23022 7.65023Z" fill="#727272"/>
<path fill-rule="evenodd" clip-rule="evenodd" d="M2.4463 4.32838C2.4463 4.06378 2.29181 3.88867 2.03874 3.88867L2.03153 3.88867C1.77124 3.88867 1.62396 4.05715 1.62396 4.32838L1.62396 4.87085L2.4463 4.87085L2.4463 4.32838ZM1.23022 5.24593L1.23022 4.30242C1.23022 4.03119 1.32099 3.82459 1.47609 3.68869C1.60954 3.57932 1.79228 3.51413 2.01049 3.51413C2.41805 3.51413 2.6573 3.72073 2.75588 4.01793L3.69064 3.44287L3.69064 3.88204L2.83283 4.40627L2.83283 4.41235L2.83283 4.87085L3.69064 4.87085L3.69064 5.24593L1.23022 5.24593Z" fill="#727272"/>
<path fill-rule="evenodd" clip-rule="evenodd" d="M2.72173 1.24636L1.74626 1.64724L2.72173 2.04031L2.72173 1.24636ZM1.23022 1.82995L1.23022 1.45011L3.69064 0.437988L3.69064 0.866516L3.09833 1.09851L3.09833 2.18816L3.69064 2.42737L3.69064 2.84207L1.23022 1.82995Z" fill="#727272"/>
<path fill-rule="evenodd" clip-rule="evenodd" d="M6.37243 40.5601C6.37243 40.1475 6.02086 39.8745 5.54308 39.8745L5.53587 39.8745C5.05088 39.8745 4.69931 40.1475 4.69931 40.5601L4.69931 40.9551L6.37243 40.9551L6.37243 40.5601ZM4.30566 41.307L4.30566 40.5601C4.30566 39.9352 4.83994 39.5039 5.52866 39.5039L5.53587 39.5039C6.2318 39.5039 6.76608 39.9352 6.76608 40.5601L6.76608 41.307L4.30566 41.307Z" fill="#727272"/>
<path fill-rule="evenodd" clip-rule="evenodd" d="M4.30566 38.9032L4.30566 37.122L4.69209 37.122L4.69209 38.4776L5.33214 38.4776L5.33214 37.2756L5.71857 37.2756L5.71857 38.4776L6.37904 38.4776L6.37904 37.1001L6.76608 37.1001L6.76608 38.9032L4.30566 38.9032Z" fill="#727272"/>
<path fill-rule="evenodd" clip-rule="evenodd" d="M5.54284 35.8977L5.53587 35.8977C4.86295 35.8977 4.30566 35.3448 4.30566 34.5433C4.30566 34.0623 4.45559 33.7663 4.67292 33.5176L4.98556 33.8143C4.8089 34.0232 4.68629 34.2473 4.68629 34.5515C4.68629 35.0489 5.06692 35.4175 5.52948 35.4175L5.53587 35.4175C6.00482 35.4175 6.38545 35.0489 6.38545 34.5515C6.38545 34.2233 6.26342 34.015 6.07281 33.7903L6.34477 33.4937C6.60337 33.7739 6.76608 34.0705 6.76608 34.5597C6.76608 35.3291 6.22274 35.8977 5.54284 35.8977Z" fill="#727272"/>
<path fill-rule="evenodd" clip-rule="evenodd" d="M5.54284 31.5171L5.53587 31.5171C5.07389 31.5171 4.68629 31.8395 4.68629 32.2955C4.68629 32.7509 5.06692 33.0733 5.52948 33.0733L5.53587 33.0733C5.99843 33.0733 6.38545 32.7437 6.38545 32.2883C6.38545 31.8323 6.00482 31.5171 5.54284 31.5171ZM5.54284 33.4939L5.53587 33.4939C4.86295 33.4939 4.30566 32.9966 4.30566 32.2883C4.30566 31.5872 4.86295 31.0898 5.52948 31.0898L5.53587 31.0898C6.20879 31.0898 6.76608 31.5872 6.76608 32.2955C6.76608 33.0032 6.20879 33.4939 5.54284 33.4939Z" fill="#727272"/>
<path fill-rule="evenodd" clip-rule="evenodd" d="M4.30566 30.4886L4.30566 30.034L6.37243 30.034L6.37243 28.6855L6.76608 28.6855L6.76608 30.4886L4.30566 30.4886Z" fill="#727272"/>
<path fill-rule="evenodd" clip-rule="evenodd" d="M5.54284 26.7096L5.53587 26.7096C5.07389 26.7096 4.68629 27.032 4.68629 27.4874C4.68629 27.9434 5.06692 28.2658 5.52948 28.2658L5.53587 28.2658C5.99843 28.2658 6.38545 27.9362 6.38545 27.4802C6.38545 27.0248 6.00482 26.7096 5.54284 26.7096ZM5.54284 28.6858L5.53587 28.6858C4.86295 28.6858 4.30566 28.1885 4.30566 27.4802C4.30566 26.7797 4.86295 26.2817 5.52948 26.2817L5.53587 26.2817C6.20879 26.2817 6.76608 26.7797 6.76608 27.4874C6.76608 28.1951 6.20879 28.6858 5.54284 28.6858Z" fill="#727272"/>
<path fill-rule="evenodd" clip-rule="evenodd" d="M4.30566 26.2815L4.30566 25.8195L5.47277 25.0833L4.30566 24.3388L4.30566 23.8774L6.76608 23.8774L6.76608 24.3089L5.0016 24.3089L6.16149 25.0833L6.16149 25.0909L5.00881 25.8571L6.76608 25.8571L6.76608 26.2815L4.30566 26.2815Z" fill="#727272"/>
<path fill-rule="evenodd" clip-rule="evenodd" d="M6.38626 22.2665C6.38626 22.009 6.26666 21.8503 6.04911 21.8503L6.03468 21.8503C5.83095 21.8503 5.71136 21.996 5.71136 22.2998L5.71136 22.9006L6.38626 22.9006L6.38626 22.2665ZM5.34596 22.3783C5.34596 22.1343 5.23358 21.9694 5.00881 21.9694L5.0016 21.9694C4.81169 21.9694 4.68548 22.1078 4.68548 22.3517L4.68548 22.9006L5.34596 22.9006L5.34596 22.3783ZM4.30566 23.2767L4.30566 22.306C4.30566 22.0547 4.38319 21.8633 4.52382 21.7379C4.62899 21.6391 4.76962 21.5928 4.93128 21.5928L4.9385 21.5928C5.23358 21.5928 5.38803 21.7379 5.48659 21.9028C5.58515 21.6453 5.75403 21.4736 6.08396 21.4736L6.09118 21.4736C6.52689 21.4736 6.76608 21.7904 6.76608 22.2732L6.76608 23.2767L4.30566 23.2767Z" fill="#727272"/>
<path fill-rule="evenodd" clip-rule="evenodd" d="M4.30566 20.6796L6.76608 20.6796L6.76608 20.2715L4.30566 20.2715L4.30566 20.6796Z" fill="#727272"/>
<path fill-rule="evenodd" clip-rule="evenodd" d="M5.79434 18.075L4.81603 18.4759L5.79434 18.8689L5.79434 18.075ZM4.30566 18.6586L4.30566 18.2787L6.76608 17.2666L6.76608 17.6951L6.17861 17.9271L6.17861 19.0168L6.76608 19.256L6.76608 19.6707L4.30566 18.6586Z" fill="#727272"/>
<path fill-rule="evenodd" clip-rule="evenodd" d="M6.76611 95.9998L7.37015 95.9998L7.37014 61.1406L6.76611 61.1406L6.76611 95.9998Z" fill="#727272"/>
<path fill-rule="evenodd" clip-rule="evenodd" d="M1.52374e-06 95.9998L0.604033 95.9998L0.604031 61.1406L0 61.1406L1.52374e-06 95.9998Z" fill="#727272"/>
<g clip-path="url(#clip0_6989_21951)">
<path d="M39.7977 71.7072H43.4989C43.4989 71.7986 43.4989 71.8901 43.4989 72.0272C43.4989 72.9873 43.171 73.8102 42.5619 74.4502C41.9529 75.0902 41.1095 75.4102 40.1257 75.4102C39.1418 75.4102 38.2985 75.0902 37.6425 74.4045C36.9866 73.7644 36.6118 72.9415 36.6118 71.9815C36.6118 71.0214 36.9398 70.1985 37.5957 69.5585C38.2516 68.9185 39.0949 68.5527 40.0788 68.5527C41.578 68.5527 42.7493 69.2842 43.2647 70.4728L42.5619 70.7014C42.0934 69.7871 41.2032 69.2842 40.1257 69.2842C39.376 69.2842 38.7201 69.5585 38.2048 70.0614C37.6894 70.5643 37.4551 71.2043 37.4551 71.9815C37.4551 72.7587 37.7362 73.353 38.2516 73.9016C38.767 74.4045 39.4229 74.6788 40.1725 74.6788C40.8753 74.6788 41.4375 74.4502 41.906 74.0387C42.3745 73.6273 42.6556 73.0787 42.7493 72.3929H39.7977V71.7072Z" fill="#727272"/>
<path d="M49.4491 70.4272L49.4023 71.1587C49.3554 71.1587 49.2617 71.1587 49.1212 71.1587C47.8562 71.1587 47.1534 72.073 47.1534 73.4446V75.3189H46.4038V70.473H47.1066V71.6616C47.5751 70.8387 48.231 70.4272 49.0743 70.4272C49.2617 70.4272 49.3554 70.4272 49.4491 70.4272Z" fill="#727272"/>
<path d="M56.3363 70.4727V75.3186H55.5866V74.5414C55.165 75.1358 54.5559 75.4558 53.7126 75.4558C53.1035 75.4558 52.635 75.2729 52.2602 74.9072C51.8854 74.5414 51.698 74.0386 51.698 73.3985V70.4727H52.4476V73.2157C52.4476 74.13 53.0098 74.7243 53.8063 74.7243C54.837 74.7243 55.5398 74.0386 55.5398 72.8042V70.4727H56.3363Z" fill="#727272"/>
<path d="M63.9728 71.0669C64.4413 71.5241 64.7225 72.1641 64.7225 72.8956C64.7225 73.6271 64.4882 74.2671 63.9728 74.7243C63.5043 75.1814 62.8953 75.4557 62.2393 75.4557C61.396 75.4557 60.7401 75.1814 60.2716 74.5414V76.9644H59.522V70.4726H60.2716V71.2498C60.7401 70.6555 61.396 70.3354 62.2393 70.3354C62.8953 70.3354 63.4575 70.564 63.9728 71.0669ZM63.4106 74.2671C63.7854 73.9014 63.926 73.4442 63.926 72.8956C63.926 72.347 63.7386 71.8898 63.4106 71.5241C63.0827 71.1584 62.6141 71.0212 62.0988 71.0212C61.6303 71.0212 61.1618 71.2041 60.787 71.5698C60.4121 71.9355 60.2247 72.347 60.2247 72.9413C60.2247 73.4899 60.4121 73.9471 60.787 74.3128C61.1618 74.6785 61.5834 74.8157 62.0988 74.8157C62.6141 74.77 63.0358 74.5871 63.4106 74.2671Z" fill="#727272"/>
<path d="M71.4223 71.0669C71.9376 71.5241 72.1719 72.1184 72.1719 72.8956C72.1719 73.6271 71.9376 74.2214 71.4223 74.7243C70.9069 75.2271 70.2978 75.4557 69.5482 75.4557C68.7986 75.4557 68.1895 75.2271 67.6742 74.7243C67.1588 74.2214 66.9246 73.6271 66.9246 72.8956C66.9246 72.1641 67.1588 71.5698 67.6742 71.0669C68.1895 70.564 68.7986 70.3354 69.5482 70.3354C70.2978 70.3354 70.9069 70.564 71.4223 71.0669ZM70.8601 74.2214C71.2349 73.8556 71.4223 73.3985 71.4223 72.8499C71.4223 72.3013 71.2349 71.8441 70.8601 71.5241C70.4853 71.1584 70.0636 70.9755 69.5482 70.9755C69.0329 70.9755 68.5644 71.1584 68.2364 71.5241C67.8616 71.8898 67.6742 72.3013 67.6742 72.8499C67.6742 73.3985 67.8616 73.8556 68.2364 74.2214C68.6112 74.5871 69.0329 74.77 69.5482 74.77C70.0636 74.77 70.4853 74.5871 70.8601 74.2214Z" fill="#727272"/>
<path d="M36.584 83.9606L46.8802 94.1488L50.5608 90.4939L40.2645 80.3057L36.584 83.9606Z" fill="#727272"/>
<path d="M39.3329 79.392C38.3079 78.3869 36.6773 78.3869 35.6523 79.392L24.3777 90.494L28.0582 94.1489L37.4693 84.8288C39.5192 82.8185 42.8271 82.8185 44.8304 84.8288L39.3329 79.392Z" fill="#727272"/>
<path d="M85.5496 83.9606L95.8458 94.1488L99.5264 90.4939L89.2301 80.3057L85.5496 83.9606Z" fill="#727272"/>
<path d="M88.2981 79.392C87.2732 78.3869 85.6426 78.3869 84.6176 79.392L73.2964 90.494L76.9769 94.1489L86.388 84.8288C88.4379 82.8185 91.7458 82.8185 93.7491 84.8288L88.2981 79.392Z" fill="#727272"/>
<path d="M63.0935 88.8493L52.7506 78.6611L49.0701 82.2704L59.4129 92.4586L63.0935 88.8493Z" fill="#727272"/>
<path d="M60.3447 93.3721C61.3696 94.3773 63.0003 94.3773 64.0252 93.3721L75.2998 82.2702L71.6193 78.6152L62.2082 87.9354C60.1583 89.9456 56.8505 89.9456 54.8005 87.9354L60.3447 93.3721Z" fill="#727272"/>
<path d="M102.275 78.6152H107.167V90.4939H102.275V78.6152Z" fill="#727272"/>
<path d="M102.275 91.6819C102.275 93.0069 103.393 94.1033 104.744 94.1033H118.302V89.3062H107.167C104.465 89.3062 102.275 87.1589 102.275 84.4634V91.6819Z" fill="#727272"/>
</g>
<defs>
<clipPath id="clip0_6989_21951">
<rect width="96" height="27.6757" fill="white" transform="translate(23.5129 68.3242)"/>
</clipPath>
</defs>
</svg>
